<svg width="200" height="200" viewBox="0 0 200 200" fill="none" xmlns="http://www.w3.org/2000/svg">
  <!-- Weißer Kreis als Hintergrund -->
  <circle cx="100" cy="100" r="200" fill="white"/>

  <!-- Originalgrafik, vertikal und horizontal zentriert -->
  <g transform="translate(100, 8) scale(1.5)">
    <path d="M21.6725 0H-0.4854V25.4923H21.6725V0Z" fill="#2A3647"/>
    <path d="M-0.4858 46.2251H21.6721V82.1779C21.7733 90.8292 19.3112 99.3153 14.5986 106.557C9.9455 113.594 -0.037 121.966 -16.6554 121.966C-34.7566 121.966 -45.3071 113.406 -51 108.715L-37.0235 91.4743C-31.467 96.0112 -26.115 99.7435 -16.5701 99.7435C-9.3433 99.7435 -6.4628 96.7988 -4.7753 94.2307C-2.4814 90.6637 -1.2948 86.4923 -1.3665 82.2464L-0.4858 46.2251Z" fill="#2A3647"/>
    <path d="M-11.7865 30.1318H-33.9443V52.3884H-11.7865V30.1318Z" fill="#29ABE2"/>
    <path d="M33.2795 111.522C33.2795 116.265 30.8762 118.815 27.5184 118.815C24.1607 118.815 21.9619 115.785 21.9619 111.762C21.9619 107.739 24.2288 104.554 27.7059 104.554C31.183 104.554 33.2795 107.687 33.2795 111.522ZM24.5356 111.711C24.5356 114.57 25.6776 116.675 27.6377 116.675C29.5978 116.675 30.7057 114.45 30.7057 111.539C30.7057 108.988 29.6831 106.592 27.6377 106.592C25.5924 106.592 24.5356 108.903 24.5356 111.711Z" fill="#2A3647"/>
    <path d="M37.6771 104.76V118.593H35.2227V104.76H37.6771Z" fill="#2A3647"/>
    <path d="M40.3359 118.593V104.76H43.0631L45.9947 110.461C46.7494 111.952 47.4209 113.483 48.006 115.049C47.8526 113.337 47.7844 111.368 47.7844 109.177V104.76H50.034V118.593H47.4946L44.5289 112.772C43.7437 111.243 43.0438 109.671 42.4324 108.064C42.4324 109.776 42.5517 111.711 42.5517 114.09V118.576L40.3359 118.593Z" fill="#2A3647"/>
  </g>
</svg>
